<svg width="24" height="33" viewBox="0 0 24 33" fill="none" xmlns="http://www.w3.org/2000/svg">
<path d="M3.42857 29.1429C1.54286 29.1429 0 30.6857 0 32.5714H24C24 30.6857 22.4571 29.1429 20.5714 29.1429H13.7143V25.7143H18.8571C20.7429 25.7143 22.2857 24.1714 22.2857 22.2857H8.57143C5.72571 22.2857 3.42857 19.9886 3.42857 17.1429C3.42857 15.2743 4.44 13.6457 5.94857 12.7371C6.65143 13.7486 7.76571 14.4514 9.08571 14.5543C10.2857 14.6571 11.4171 14.2286 12.2571 13.4914L13.2686 16.2514L14.88 15.6686L15.4629 17.28L18.6857 16.1143L18.1029 14.5029L19.7143 13.92L15.0171 1.02857L13.4057 1.61143L12.8229 0L9.6 1.16571L10.1829 2.77714L8.57143 3.37714L9.53143 6.03429C7.52572 5.96571 5.77714 7.32 5.28 9.22286C2.17714 10.5257 0 13.5771 0 17.1429C0 21.8743 3.84 25.7143 8.57143 25.7143V29.1429H3.42857ZM13.4743 4.32L16.4057 12.3771L14.7943 12.96L11.8629 4.90286L13.4743 4.32ZM9.42857 8.57143C10.3714 8.57143 11.1429 9.34286 11.1429 10.2857C11.1429 11.2286 10.3714 12 9.42857 12C8.48571 12 7.71429 11.2286 7.71429 10.2857C7.71429 9.34286 8.48571 8.57143 9.42857 8.57143Z" fill="black"/>
</svg>
