<svg width="32" height="32" viewBox="0 0 32 32" fill="none" xmlns="http://www.w3.org/2000/svg">
<g clip-path="url(#clip0_525_82)">
<path d="M22.6667 20H25.3334V22.6666H22.6667V20ZM22.6667 14.6666H25.3334V17.3333H22.6667V14.6666ZM22.6667 9.33331H25.3334V12H22.6667V9.33331ZM18.3201 9.33331L20.0001 10.4533V9.33331H18.3201Z" fill="black"/>
<path d="M13.3333 4V6.01333L15.9999 7.78667V6.66667H27.9999V25.3333H22.6666V28H30.6666V4H13.3333Z" fill="black"/>
<path d="M10.8933 7.59998L19.9999 13.6666V28H1.33325V13.9733L10.8933 7.59998ZM13.3333 25.3333H17.3333V14.88L10.8933 10.7866L3.99992 15.1733V25.3333H7.99992V17.3333H13.3333V25.3333Z" fill="black"/>
</g>
<defs>
<clipPath id="clip0_525_82">
<rect width="32" height="32" fill="white"/>
</clipPath>
</defs>
</svg>
