<svg width="32" height="32" viewBox="0 0 32 32" fill="none" xmlns="http://www.w3.org/2000/svg">
<g clip-path="url(#clip0_525_99)">
<path d="M25.7068 6.57334L22.8802 3.74667C21.8402 2.70667 20.1468 2.70667 19.1068 3.74667L15.3335 7.52001L18.1602 10.3467L20.9868 7.52001L25.7068 12.24C27.2668 10.6667 27.2668 8.13334 25.7068 6.57334Z" fill="black"/>
<path d="M7.31998 18.36C8.10665 19.1467 9.37331 19.1467 10.1466 18.36L13.44 15.0667L10.6133 12.2267L7.31998 15.52C6.53331 16.3067 6.53331 17.5734 7.31998 18.36Z" fill="black"/>
<path d="M20.0534 10.3467L19.1067 11.2933L18.16 12.24L13.92 7.99999C13.1334 7.19999 11.8667 7.19999 11.0934 7.98666C10.3067 8.77333 10.3067 10.04 11.0934 10.8133L15.3334 15.0533L14.3867 16L5.90671 24.48C4.86671 25.52 4.86671 27.2133 5.90671 28.2533C6.94671 29.2933 8.64004 29.2933 9.68004 28.2533L21.9334 16C22.4534 16.52 23.2934 16.52 23.8134 16C24.3334 15.48 24.3334 14.64 23.8134 14.12L20.0534 10.3467Z" fill="black"/>
</g>
<defs>
<clipPath id="clip0_525_99">
<rect width="32" height="32" fill="white"/>
</clipPath>
</defs>
</svg>
